<svg width="126" height="32" viewBox="0 0 126 32" fill="none" xmlns="http://www.w3.org/2000/svg">
<path d="M3.51085 17.1385H0V0H3.51085V17.1385Z" fill="#084B9B"/>
<path d="M9.58715 17.434C8.38647 17.434 7.42897 17.1082 6.71464 16.4566C6.01551 15.7898 5.66595 14.9033 5.66595 13.7972C5.66595 12.7516 6.02311 11.9181 6.73744 11.2968C7.46697 10.6756 8.51566 10.3119 9.88353 10.2058L13.0752 9.95577V9.77393C13.0752 9.39509 12.9992 9.08445 12.8472 8.842C12.6952 8.58439 12.4749 8.39497 12.1861 8.27374C11.9125 8.13736 11.563 8.06917 11.1374 8.06917C10.3927 8.06917 9.82273 8.20555 9.42757 8.47831C9.04761 8.75108 8.85763 9.14506 8.85763 9.66028H5.93952C5.93952 8.79654 6.1599 8.04644 6.60065 7.41C7.04141 6.77356 7.66455 6.28107 8.47007 5.93255C9.29078 5.58402 10.2407 5.40976 11.3198 5.40976C12.4293 5.40976 13.364 5.60675 14.1239 6.00074C14.899 6.39473 15.4842 6.97055 15.8793 7.72822C16.2897 8.48589 16.4949 9.41025 16.4949 10.5013V17.1385H13.3944L13.1664 15.6383C12.984 16.1535 12.5509 16.5854 11.8669 16.9339C11.1982 17.2673 10.4383 17.434 9.58715 17.434ZM10.8182 14.8427C11.487 14.8427 12.0341 14.6836 12.4597 14.3654C12.8852 14.032 13.098 13.5395 13.098 12.8879V12.2742L11.3198 12.4333C10.5599 12.494 10.0203 12.6228 9.70114 12.8198C9.39717 13.0016 9.24519 13.2744 9.24519 13.638C9.24519 14.0472 9.37438 14.3502 9.63275 14.5472C9.89112 14.7442 10.2863 14.8427 10.8182 14.8427Z" fill="#084B9B"/>
<path d="M22.5238 17.1385H19.0129V5.77344H22.3186L22.5466 6.9554C22.8962 6.47049 23.3749 6.09166 23.9828 5.8189C24.606 5.54614 25.2899 5.40976 26.0346 5.40976C27.3873 5.40976 28.436 5.82647 29.1807 6.65991C29.9407 7.47819 30.3206 8.62985 30.3206 10.1149V17.1385H26.8098V10.9559C26.8098 10.2437 26.6274 9.67543 26.2626 9.25114C25.8979 8.81169 25.4115 8.59196 24.8036 8.59196C24.1044 8.59196 23.5497 8.80411 23.1393 9.22841C22.729 9.63755 22.5238 10.1982 22.5238 10.9104V17.1385Z" fill="#084B9B"/>
<path d="M36.281 17.434C35.0803 17.434 34.1228 17.1082 33.4085 16.4566C32.7093 15.7898 32.3598 14.9033 32.3598 13.7972C32.3598 12.7516 32.7169 11.9181 33.4313 11.2968C34.1608 10.6756 35.2095 10.3119 36.5773 10.2058L39.769 9.95577V9.77393C39.769 9.39509 39.693 9.08445 39.541 8.842C39.3891 8.58439 39.1687 8.39497 38.8799 8.27374C38.6063 8.13736 38.2568 8.06917 37.8312 8.06917C37.0865 8.06917 36.5165 8.20555 36.1214 8.47831C35.7414 8.75108 35.5514 9.14506 35.5514 9.66028H32.6333C32.6333 8.79654 32.8537 8.04644 33.2945 7.41C33.7352 6.77356 34.3584 6.28107 35.1639 5.93255C35.9846 5.58402 36.9345 5.40976 38.0136 5.40976C39.1231 5.40976 40.0578 5.60675 40.8177 6.00074C41.5928 6.39473 42.178 6.97055 42.5731 7.72822C42.9835 8.48589 43.1887 9.41025 43.1887 10.5013V17.1385H40.0882L39.8602 15.6383C39.6778 16.1535 39.2447 16.5854 38.5607 16.9339C37.892 17.2673 37.1321 17.434 36.281 17.434ZM37.512 14.8427C38.1808 14.8427 38.7279 14.6836 39.1535 14.3654C39.579 14.032 39.7918 13.5395 39.7918 12.8879V12.2742L38.0136 12.4333C37.2537 12.494 36.7141 12.6228 36.395 12.8198C36.091 13.0016 35.939 13.2744 35.939 13.638C35.939 14.0472 36.0682 14.3502 36.3266 14.5472C36.5849 14.7442 36.9801 14.8427 37.512 14.8427Z" fill="#084B9B"/>
<path d="M42.6415 31.6981C41.5485 31.6981 40.5998 31.4557 39.7953 30.9708C38.9908 30.4859 38.3608 29.8039 37.9054 28.9251C37.4652 28.031 37.2451 26.9854 37.2451 25.7883C37.2451 24.576 37.4728 23.5153 37.9282 22.6061C38.3836 21.6817 39.0287 20.962 39.8636 20.4467C40.7136 19.9315 41.7155 19.6739 42.8691 19.6739C43.5826 19.6739 44.2429 19.8027 44.8501 20.0603C45.4724 20.3179 45.9506 20.6589 46.2845 21.0832V14.2642H49.791V31.4026H46.4895L46.3073 29.9479C46.0037 30.4631 45.518 30.8874 44.8501 31.2208C44.1974 31.539 43.4611 31.6981 42.6415 31.6981ZM43.4839 28.4932C44.0304 28.4932 44.5085 28.3795 44.9184 28.1522C45.3434 27.9098 45.6698 27.5764 45.8975 27.1521C46.1403 26.7127 46.2618 26.2126 46.2618 25.6519C46.2618 25.0761 46.1403 24.576 45.8975 24.1517C45.6698 23.7274 45.3434 23.4016 44.9184 23.1743C44.5085 22.9319 44.0304 22.8107 43.4839 22.8107C42.9375 22.8107 42.4593 22.9319 42.0494 23.1743C41.6396 23.4168 41.3208 23.7502 41.0931 24.1745C40.8806 24.5988 40.7744 25.0912 40.7744 25.6519C40.7744 26.2126 40.8806 26.7051 41.0931 27.1294C41.3208 27.5537 41.6396 27.887 42.0494 28.1295C42.4593 28.372 42.9375 28.4932 43.4839 28.4932Z" fill="#084B9B"/>
<path d="M55.8624 31.6981C54.6632 31.6981 53.7069 31.3723 52.9935 30.7207C52.2952 30.054 51.9461 29.1675 51.9461 28.0613C51.9461 27.0157 52.3028 26.1823 53.0163 25.561C53.7449 24.9397 54.7923 24.576 56.1584 24.47L59.3461 24.2199V24.0381C59.3461 23.6593 59.2702 23.3486 59.1185 23.1062C58.9667 22.8485 58.7466 22.6591 58.4581 22.5379C58.1849 22.4015 57.8358 22.3333 57.4107 22.3333C56.667 22.3333 56.0977 22.4697 55.703 22.7425C55.3236 23.0152 55.1338 23.4092 55.1338 23.9244H52.2193C52.2193 23.0607 52.4394 22.3106 52.8797 21.6742C53.3199 21.0377 53.9422 20.5452 54.7467 20.1967C55.5664 19.8482 56.5152 19.6739 57.5929 19.6739C58.701 19.6739 59.6346 19.8709 60.3935 20.2649C61.1677 20.6589 61.7521 21.2347 62.1468 21.9924C62.5566 22.7501 62.7615 23.6744 62.7615 24.7655V31.4026H59.6649L59.4372 29.9024C59.2551 30.4177 58.8224 30.8495 58.1394 31.1981C57.4715 31.5314 56.7125 31.6981 55.8624 31.6981ZM57.092 29.1069C57.7599 29.1069 58.3063 28.9478 58.7314 28.6296C59.1564 28.2962 59.3689 27.8037 59.3689 27.1521V26.5384L57.5929 26.6975C56.8339 26.7581 56.2951 26.8869 55.9763 27.0839C55.6727 27.2658 55.5209 27.5385 55.5209 27.9022C55.5209 28.3113 55.6499 28.6144 55.908 28.8114C56.166 29.0084 56.5607 29.1069 57.092 29.1069Z" fill="#084B9B"/>
<path d="M68.783 31.4026H65.2765V20.0376H68.578L68.8057 21.2196C69.1549 20.7347 69.633 20.3558 70.2402 20.0831C70.8626 19.8103 71.5456 19.6739 72.2894 19.6739C73.6404 19.6739 74.6878 20.0906 75.4316 20.9241C76.1906 21.7424 76.5701 22.894 76.5701 24.379V31.4026H73.0636V25.2201C73.0636 24.5078 72.8814 23.9396 72.5171 23.5153C72.1528 23.0758 71.6671 22.8561 71.0599 22.8561C70.3616 22.8561 69.8076 23.0683 69.3977 23.4926C68.9879 23.9017 68.783 24.4624 68.783 25.1746V31.4026Z" fill="#084B9B"/>
<path d="M83.8664 31.6981C82.7735 31.6981 81.8248 31.4557 81.0202 30.9708C80.2157 30.4859 79.5858 29.8039 79.1304 28.9251C78.6902 28.031 78.4701 26.9854 78.4701 25.7883C78.4701 24.576 78.6978 23.5153 79.1532 22.6061C79.6085 21.6817 80.2537 20.962 81.0886 20.4467C81.9386 19.9315 82.9405 19.6739 84.0941 19.6739C84.8075 19.6739 85.4679 19.8027 86.075 20.0603C86.6974 20.3179 87.1756 20.6589 87.5095 21.0832V14.2642H91.016V31.4026H87.7144L87.5323 29.9479C87.2287 30.4631 86.7429 30.8874 86.075 31.2208C85.4223 31.539 84.6861 31.6981 83.8664 31.6981ZM84.7089 28.4932C85.2553 28.4932 85.7335 28.3795 86.1433 28.1522C86.5684 27.9098 86.8947 27.5764 87.1224 27.1521C87.3653 26.7127 87.4867 26.2126 87.4867 25.6519C87.4867 25.0761 87.3653 24.576 87.1224 24.1517C86.8947 23.7274 86.5684 23.4016 86.1433 23.1743C85.7335 22.9319 85.2553 22.8107 84.7089 22.8107C84.1624 22.8107 83.6843 22.9319 83.2744 23.1743C82.8646 23.4168 82.5458 23.7502 82.3181 24.1745C82.1056 24.5988 81.9993 25.0912 81.9993 25.6519C81.9993 26.2126 82.1056 26.7051 82.3181 27.1294C82.5458 27.5537 82.8646 27.887 83.2744 28.1295C83.6843 28.372 84.1624 28.4932 84.7089 28.4932Z" fill="#084B9B"/>
<path d="M97.0874 31.6981C95.8882 31.6981 94.9319 31.3723 94.2185 30.7207C93.5202 30.054 93.1711 29.1675 93.1711 28.0613C93.1711 27.0157 93.5278 26.1823 94.2412 25.561C94.9698 24.9397 96.0172 24.576 97.3834 24.47L100.571 24.2199V24.0381C100.571 23.6593 100.495 23.3486 100.343 23.1062C100.192 22.8485 99.9715 22.6591 99.6831 22.5379C99.4099 22.4015 99.0607 22.3333 98.6357 22.3333C97.8919 22.3333 97.3227 22.4697 96.928 22.7425C96.5485 23.0152 96.3588 23.4092 96.3588 23.9244H93.4443C93.4443 23.0607 93.6644 22.3106 94.1046 21.6742C94.5448 21.0377 95.1672 20.5452 95.9717 20.1967C96.7914 19.8482 97.7401 19.6739 98.8179 19.6739C99.926 19.6739 100.86 19.8709 101.618 20.2649C102.393 20.6589 102.977 21.2347 103.372 21.9924C103.782 22.7501 103.987 23.6744 103.987 24.7655V31.4026H100.89L100.662 29.9024C100.48 30.4177 100.047 30.8495 99.3643 31.1981C98.6964 31.5314 97.9375 31.6981 97.0874 31.6981ZM98.3169 29.1069C98.9848 29.1069 99.5313 28.9478 99.9563 28.6296C100.381 28.2962 100.594 27.8037 100.594 27.1521V26.5384L98.8179 26.6975C98.0589 26.7581 97.52 26.8869 97.2012 27.0839C96.8977 27.2658 96.7459 27.5385 96.7459 27.9022C96.7459 28.3113 96.8749 28.6144 97.1329 28.8114C97.391 29.0084 97.7857 29.1069 98.3169 29.1069Z" fill="#084B9B"/>
<path d="M114.334 20.0376V23.3335H113.218C112.217 23.3335 111.427 23.5759 110.85 24.0608C110.289 24.5457 110.008 25.3489 110.008 26.4702V31.4026H106.501V20.0603H109.803L110.076 22.4924H109.757C109.909 21.7348 110.251 21.1135 110.782 20.6286C111.329 20.1285 112.065 19.8785 112.991 19.8785C113.203 19.8785 113.416 19.8936 113.628 19.9239C113.856 19.9391 114.091 19.977 114.334 20.0376Z" fill="#084B9B"/>
<path d="M119.101 31.6981C117.902 31.6981 116.945 31.3723 116.232 30.7207C115.534 30.054 115.184 29.1675 115.184 28.0613C115.184 27.0157 115.541 26.1823 116.255 25.561C116.983 24.9397 118.031 24.576 119.397 24.47L122.584 24.2199V24.0381C122.584 23.6593 122.509 23.3486 122.357 23.1062C122.205 22.8485 121.985 22.6591 121.696 22.5379C121.423 22.4015 121.074 22.3333 120.649 22.3333C119.905 22.3333 119.336 22.4697 118.941 22.7425C118.562 23.0152 118.372 23.4092 118.372 23.9244H115.458C115.458 23.0607 115.678 22.3106 116.118 21.6742C116.558 21.0377 117.181 20.5452 117.985 20.1967C118.805 19.8482 119.753 19.6739 120.831 19.6739C121.939 19.6739 122.873 19.8709 123.632 20.2649C124.406 20.6589 124.99 21.2347 125.385 21.9924C125.795 22.7501 126 23.6744 126 24.7655V31.4026H122.903L122.676 29.9024C122.493 30.4177 122.061 30.8495 121.378 31.1981C120.71 31.5314 119.951 31.6981 119.101 31.6981ZM120.33 29.1069C120.998 29.1069 121.545 28.9478 121.97 28.6296C122.395 28.2962 122.607 27.8037 122.607 27.1521V26.5384L120.831 26.6975C120.072 26.7581 119.533 26.8869 119.215 27.0839C118.911 27.2658 118.759 27.5385 118.759 27.9022C118.759 28.3113 118.888 28.6144 119.146 28.8114C119.404 29.0084 119.799 29.1069 120.33 29.1069Z" fill="#084B9B"/>
<path d="M31 20C30.291 22.7441 28.8588 25.2755 26.8196 27.3137C23.8174 30.3143 19.7457 32 15.5 32C11.2544 32 7.18262 30.3143 4.18049 27.3137C2.14127 25.2755 0.708972 22.7441 0 20L3.88344 20C4.4856 21.7469 5.48015 23.3523 6.81206 24.6835C9.11626 26.9865 12.2414 28.2803 15.5 28.2803C18.7586 28.2803 21.8838 26.9865 24.188 24.6835C25.5199 23.3523 26.5145 21.7469 27.1166 20H31Z" fill="#F75F4D"/>
</svg>
